<svg viewBox="0 0 24 24" fill="none" xmlns="http://www.w3.org/2000/svg" class="" >
	<path
		d="M3 5.00038C3 3.77297 3.99502 2.77795 5.22243 2.77795H9.66728C10.8947 2.77795 11.8897 3.77297 11.8897 5.00038V9.36487C11.8898 9.39154 11.8898 9.41834 11.8898 9.44523C11.8898 10.6709 12.882 11.6648 14.107 11.6677H14.1121H18.557C19.7844 11.6677 20.7794 12.6627 20.7794 13.8901V18.3349C20.7794 19.5623 19.7844 20.5574 18.557 20.5574H14.1121C12.8847 20.5574 11.8897 19.5623 11.8897 18.3349V13.8901C11.8897 13.8839 11.8898 13.8778 11.8898 13.8716C11.8798 12.6527 10.8887 11.6677 9.66741 11.6677C9.66168 11.6677 9.65594 11.6677 9.65021 11.6677H5.22243C3.99502 11.6677 3 10.6726 3 9.44523L3 5.00038Z"
		fill="currentColor"
	/>
</svg>